<?xml version="1.0" encoding="UTF-8" standalone="no"?>
<!-- Created with Inkscape (http://www.inkscape.org/) -->

<svg
   xmlns:dc="http://purl.org/dc/elements/1.1/"
   xmlns:cc="http://creativecommons.org/ns#"
   xmlns:rdf="http://www.w3.org/1999/02/22-rdf-syntax-ns#"
   xmlns:svg="http://www.w3.org/2000/svg"
   xmlns="http://www.w3.org/2000/svg"
   xmlns:sodipodi="http://sodipodi.sourceforge.net/DTD/sodipodi-0.dtd"
   xmlns:inkscape="http://www.inkscape.org/namespaces/inkscape"
   width="210mm"
   height="297mm"
   id="svg2"
   version="1.1"
   inkscape:version="0.48.4 r9939"
   sodipodi:docname="新規ドキュメント 1">
  <defs
     id="defs4">
    <clipPath
       id="clipPath3511"
       clipPathUnits="userSpaceOnUse">
      <path
         id="path3513"
         clip-rule="evenodd"
         d="m 51.36,674.98 490.8,0 0,111.72 -490.8,0 0,-111.72 z" />
    </clipPath>
    <clipPath
       id="clipPath3119"
       clipPathUnits="userSpaceOnUse">
      <path
         id="path3121"
         clip-rule="evenodd"
         d="m 49.44,672.94 494.76,0 0,115.68 -494.76,0 0,-115.68 z" />
    </clipPath>
    <clipPath
       id="clipPath3107"
       clipPathUnits="userSpaceOnUse">
      <path
         id="path3109"
         clip-rule="evenodd"
         d="m 304.73,704.86 33.864,0 0,11.76 -33.864,0 0,-11.76 z" />
    </clipPath>
    <clipPath
       id="clipPath3095"
       clipPathUnits="userSpaceOnUse">
      <path
         id="path3097"
         clip-rule="evenodd"
         d="m 259.61,704.86 33.84,0 0,11.76 -33.84,0 0,-11.76 z" />
    </clipPath>
    <clipPath
       id="clipPath3083"
       clipPathUnits="userSpaceOnUse">
      <path
         id="path3085"
         clip-rule="evenodd"
         d="m 214.49,704.86 33.84,0 0,11.76 -33.84,0 0,-11.76 z" />
    </clipPath>
    <clipPath
       id="clipPath3071"
       clipPathUnits="userSpaceOnUse">
      <path
         id="path3073"
         clip-rule="evenodd"
         d="m 169.34,704.86 33.864,0 0,11.76 -33.864,0 0,-11.76 z" />
    </clipPath>
    <clipPath
       id="clipPath3059"
       clipPathUnits="userSpaceOnUse">
      <path
         id="path3061"
         clip-rule="evenodd"
         d="m 124.22,704.86 33.84,0 0,11.76 -33.84,0 0,-11.76 z" />
    </clipPath>
    <clipPath
       id="clipPath3047"
       clipPathUnits="userSpaceOnUse">
      <path
         id="path3049"
         clip-rule="evenodd"
         d="m 79.08,704.86 33.864,0 0,11.76 -33.864,0 0,-11.76 z" />
    </clipPath>
    <clipPath
       id="clipPath3035"
       clipPathUnits="userSpaceOnUse">
      <path
         id="path3037"
         clip-rule="evenodd"
         d="m 485.26,704.86 33.84,0 0,11.76 -33.84,0 0,-11.76 z" />
    </clipPath>
    <clipPath
       id="clipPath3023"
       clipPathUnits="userSpaceOnUse">
      <path
         id="path3025"
         clip-rule="evenodd"
         d="m 440.14,704.86 33.84,0 0,11.76 -33.84,0 0,-11.76 z" />
    </clipPath>
    <clipPath
       id="clipPath3011"
       clipPathUnits="userSpaceOnUse">
      <path
         id="path3013"
         clip-rule="evenodd"
         d="m 394.99,704.86 33.864,0 0,11.76 -33.864,0 0,-11.76 z" />
    </clipPath>
    <clipPath
       id="clipPath2999"
       clipPathUnits="userSpaceOnUse">
      <path
         id="path3001"
         clip-rule="evenodd"
         d="m 349.87,704.86 33.84,0 0,11.76 -33.84,0 0,-11.76 z" />
    </clipPath>
  </defs>
  <sodipodi:namedview
     id="base"
     pagecolor="#ffffff"
     bordercolor="#666666"
     borderopacity="1.0"
     inkscape:pageopacity="0.0"
     inkscape:pageshadow="2"
     inkscape:zoom="1.979899"
     inkscape:cx="357.09388"
     inkscape:cy="471.40816"
     inkscape:document-units="px"
     inkscape:current-layer="layer1"
     showgrid="false"
     inkscape:window-width="1920"
     inkscape:window-height="1017"
     inkscape:window-x="-8"
     inkscape:window-y="-8"
     inkscape:window-maximized="1" />
  <metadata
     id="metadata7">
    <rdf:RDF>
      <cc:Work
         rdf:about="">
        <dc:format>image/svg+xml</dc:format>
        <dc:type
           rdf:resource="http://purl.org/dc/dcmitype/StillImage" />
        <dc:title></dc:title>
      </cc:Work>
    </rdf:RDF>
  </metadata>
  <g
     inkscape:label="レイヤー 1"
     inkscape:groupmode="layer"
     id="layer1">
    <g
       id="g4800">
      <g
         transform="matrix(1.25,0,0,-1.25,0.825,1419.0872)"
         id="g2997"
         clip-path="url(#clipPath2999)">
        <text
           transform="matrix(1,0,0,-1,365.11,708.7)"
           id="text3003">
          <tspan
             style="font-size:7.55999994px;font-variant:normal;font-weight:normal;writing-mode:lr-tb;fill:#000000;fill-opacity:1;fill-rule:nonzero;stroke:none;font-family:Consolas;-inkscape-font-specification:Consolas"
             x="0"
             y="0"
             id="tspan3005">P</tspan>
        </text>
      </g>
      <g
         transform="matrix(1.25,0,0,-1.25,0.825,1419.0872)"
         id="g3009"
         clip-path="url(#clipPath3011)">
        <text
           transform="matrix(1,0,0,-1,406.03,708.7)"
           id="text3015">
          <tspan
             style="font-size:7.55999994px;font-variant:normal;font-weight:normal;writing-mode:lr-tb;fill:#000000;fill-opacity:1;fill-rule:nonzero;stroke:none;font-family:Consolas;-inkscape-font-specification:Consolas"
             x="0 4.1999998 8.3999996"
             y="0"
             sodipodi:role="line"
             id="tspan3017">SP1</tspan>
        </text>
      </g>
      <g
         transform="matrix(1.25,0,0,-1.25,0.825,1419.0872)"
         id="g3021"
         clip-path="url(#clipPath3023)">
        <text
           transform="matrix(1,0,0,-1,451.18,708.7)"
           id="text3027">
          <tspan
             style="font-size:7.55999994px;font-variant:normal;font-weight:normal;writing-mode:lr-tb;fill:#000000;fill-opacity:1;fill-rule:nonzero;stroke:none;font-family:Consolas;-inkscape-font-specification:Consolas"
             x="0 4.1999998 8.3999996"
             y="0"
             sodipodi:role="line"
             id="tspan3029">SP2</tspan>
        </text>
      </g>
      <g
         transform="matrix(1.25,0,0,-1.25,0.825,1419.0872)"
         id="g3033"
         clip-path="url(#clipPath3035)">
        <text
           transform="matrix(1,0,0,-1,487.9,708.7)"
           id="text3039">
          <tspan
             style="font-size:7.55999994px;font-variant:normal;font-weight:normal;writing-mode:lr-tb;fill:#000000;fill-opacity:1;fill-rule:nonzero;stroke:none;font-family:Consolas;-inkscape-font-specification:Consolas"
             x="0 4.1999998 8.3999996 12.6 16.799999 21 25.200001"
             y="0"
             sodipodi:role="line"
             id="tspan3041">IDLE/ST</tspan>
        </text>
      </g>
      <g
         transform="matrix(1.25,0,0,-1.25,0.825,1419.0872)"
         id="g3045"
         clip-path="url(#clipPath3047)">
        <text
           transform="matrix(1,0,0,-1,88.08,708.7)"
           id="text3051">
          <tspan
             style="font-size:7.55999994px;font-variant:normal;font-weight:normal;writing-mode:lr-tb;fill:#000000;fill-opacity:1;fill-rule:nonzero;stroke:none;font-family:Consolas;-inkscape-font-specification:Consolas"
             x="0 4.1999998 8.3999996 12.6"
             y="0"
             sodipodi:role="line"
             id="tspan3053">IDLE</tspan>
        </text>
      </g>
      <g
         transform="matrix(1.25,0,0,-1.25,0.825,1419.0872)"
         id="g3057"
         clip-path="url(#clipPath3059)">
        <text
           transform="matrix(1,0,0,-1,137.42,708.7)"
           id="text3063">
          <tspan
             style="font-size:7.55999994px;font-variant:normal;font-weight:normal;writing-mode:lr-tb;fill:#000000;fill-opacity:1;fill-rule:nonzero;stroke:none;font-family:Consolas;-inkscape-font-specification:Consolas"
             x="0 4.1999998"
             y="0"
             sodipodi:role="line"
             id="tspan3065">ST</tspan>
        </text>
      </g>
      <g
         transform="matrix(1.25,0,0,-1.25,0.825,1419.0872)"
         id="g3069"
         clip-path="url(#clipPath3071)">
        <text
           transform="matrix(1,0,0,-1,182.54,708.7)"
           id="text3075">
          <tspan
             style="font-size:7.55999994px;font-variant:normal;font-weight:normal;writing-mode:lr-tb;fill:#000000;fill-opacity:1;fill-rule:nonzero;stroke:none;font-family:Consolas;-inkscape-font-specification:Consolas"
             x="0 4.1999998"
             y="0"
             sodipodi:role="line"
             id="tspan3077">D0</tspan>
        </text>
      </g>
      <g
         transform="matrix(1.25,0,0,-1.25,0.825,1419.0872)"
         id="g3081"
         clip-path="url(#clipPath3083)">
        <text
           transform="matrix(1,0,0,-1,227.69,708.7)"
           id="text3087">
          <tspan
             style="font-size:7.55999994px;font-variant:normal;font-weight:normal;writing-mode:lr-tb;fill:#000000;fill-opacity:1;fill-rule:nonzero;stroke:none;font-family:Consolas;-inkscape-font-specification:Consolas"
             x="0 4.1999998"
             y="0"
             sodipodi:role="line"
             id="tspan3089">D1</tspan>
        </text>
      </g>
      <g
         transform="matrix(1.25,0,0,-1.25,0.825,1419.0872)"
         id="g3093"
         clip-path="url(#clipPath3095)">
        <text
           transform="matrix(1,0,0,-1,266.45,708.7)"
           id="text3099">
          <tspan
             style="font-size:7.55999994px;font-variant:normal;font-weight:normal;writing-mode:lr-tb;fill:#000000;fill-opacity:1;fill-rule:nonzero;stroke:none;font-family:Consolas;-inkscape-font-specification:Consolas"
             x="0 4.1999998 8.3999996 12.6 16.799999"
             y="0"
             sodipodi:role="line"
             id="tspan3101">D2-D6</tspan>
        </text>
      </g>
      <g
         transform="matrix(1.25,0,0,-1.25,0.825,1419.0872)"
         id="g3105"
         clip-path="url(#clipPath3107)">
        <text
           transform="matrix(1,0,0,-1,317.95,708.7)"
           id="text3111">
          <tspan
             style="font-size:7.55999994px;font-variant:normal;font-weight:normal;writing-mode:lr-tb;fill:#000000;fill-opacity:1;fill-rule:nonzero;stroke:none;font-family:Consolas;-inkscape-font-specification:Consolas"
             x="0 4.1999998"
             y="0"
             sodipodi:role="line"
             id="tspan3113">D7</tspan>
        </text>
      </g>
      <path
         id="path3197"
         style="fill:#000000;fill-opacity:1;fill-rule:evenodd;stroke:none"
         d="m 99.675,523.7622 42.48,0 0,-0.75001 -42.48,0 0,0.75001 z"
         inkscape:connector-curvature="0" />
      <path
         id="path3199"
         style="fill:#000000;fill-opacity:1;fill-rule:evenodd;stroke:none"
         d="m 212.5,523.7622 42.48,0 0,-0.75001 -42.48,0 0,0.75001 z"
         inkscape:connector-curvature="0" />
      <path
         id="path3201"
         style="fill:#000000;fill-opacity:1;fill-rule:evenodd;stroke:none"
         d="m 268.9375,523.7622 42.45,0 0,-0.75001 -42.45,0 0,0.75001 z"
         inkscape:connector-curvature="0" />
      <path
         id="path3203"
         style="fill:#000000;fill-opacity:1;fill-rule:evenodd;stroke:none"
         d="m 326.0875,523.7622 2.4,0 0,-0.75001 -2.4,0 0,0.75001 z"
         inkscape:connector-curvature="0" />
      <path
         id="path3205"
         style="fill:#000000;fill-opacity:1;fill-rule:evenodd;stroke:none"
         d="m 329.3875,523.7622 2.4,0 0,-0.75001 -2.4,0 0,0.75001 z"
         inkscape:connector-curvature="0" />
      <path
         id="path3207"
         style="fill:#000000;fill-opacity:1;fill-rule:evenodd;stroke:none"
         d="m 332.6875,523.7622 2.4,0 0,-0.75001 -2.4,0 0,0.75001 z"
         inkscape:connector-curvature="0" />
      <path
         id="path3209"
         style="fill:#000000;fill-opacity:1;fill-rule:evenodd;stroke:none"
         d="m 335.9875,523.7622 2.4,0 0,-0.75001 -2.4,0 0,0.75001 z"
         inkscape:connector-curvature="0" />
      <path
         id="path3211"
         style="fill:#000000;fill-opacity:1;fill-rule:evenodd;stroke:none"
         d="m 339.2875,523.7622 2.4,0 0,-0.75001 -2.4,0 0,0.75001 z"
         inkscape:connector-curvature="0" />
      <path
         id="path3213"
         style="fill:#000000;fill-opacity:1;fill-rule:evenodd;stroke:none"
         d="m 342.5875,523.7622 2.4,0 0,-0.75001 -2.4,0 0,0.75001 z"
         inkscape:connector-curvature="0" />
      <path
         id="path3215"
         style="fill:#000000;fill-opacity:1;fill-rule:evenodd;stroke:none"
         d="m 345.8875,523.7622 2.4,0 0,-0.75001 -2.4,0 0,0.75001 z"
         inkscape:connector-curvature="0" />
      <path
         id="path3217"
         style="fill:#000000;fill-opacity:1;fill-rule:evenodd;stroke:none"
         d="m 349.1875,523.7622 2.4,0 0,-0.75001 -2.4,0 0,0.75001 z"
         inkscape:connector-curvature="0" />
      <path
         id="path3219"
         style="fill:#000000;fill-opacity:1;fill-rule:evenodd;stroke:none"
         d="m 352.4875,523.7622 2.4,0 0,-0.75001 -2.4,0 0,0.75001 z"
         inkscape:connector-curvature="0" />
      <path
         id="path3221"
         style="fill:#000000;fill-opacity:1;fill-rule:evenodd;stroke:none"
         d="m 355.7875,523.7622 2.4,0 0,-0.75001 -2.4,0 0,0.75001 z"
         inkscape:connector-curvature="0" />
      <path
         id="path3223"
         style="fill:#000000;fill-opacity:1;fill-rule:evenodd;stroke:none"
         d="m 359.0875,523.7622 2.4,0 0,-0.75001 -2.4,0 0,0.75001 z"
         inkscape:connector-curvature="0" />
      <path
         id="path3225"
         style="fill:#000000;fill-opacity:1;fill-rule:evenodd;stroke:none"
         d="m 362.3875,523.7622 2.4,0 0,-0.75001 -2.4,0 0,0.75001 z"
         inkscape:connector-curvature="0" />
      <path
         id="path3227"
         style="fill:#000000;fill-opacity:1;fill-rule:evenodd;stroke:none"
         d="m 365.6875,523.7622 2.1,0 0,-0.75001 -2.1,0 0,0.75001 z"
         inkscape:connector-curvature="0" />
      <path
         id="path3229"
         style="fill:#000000;fill-opacity:1;fill-rule:evenodd;stroke:none"
         d="m 381.7375,523.7622 42.48,0 0,-0.75001 -42.48,0 0,0.75001 z"
         inkscape:connector-curvature="0" />
      <path
         id="path3231"
         style="fill:#000000;fill-opacity:1;fill-rule:evenodd;stroke:none"
         d="m 438.1625,523.7622 42.45,0 0,-0.75001 -42.45,0 0,0.75001 z"
         inkscape:connector-curvature="0" />
      <path
         id="path3233"
         style="fill:#000000;fill-opacity:1;fill-rule:evenodd;stroke:none"
         d="m 494.5625,523.7622 98.88,0 0,-0.75001 -98.88,0 0,0.75001 z"
         inkscape:connector-curvature="0" />
      <path
         id="path3235"
         style="fill:#000000;fill-opacity:1;fill-rule:evenodd;stroke:none"
         d="m 71.925,531.1122 2.4,0 0,-0.75001 -2.4,0 0,0.75001 z"
         inkscape:connector-curvature="0" />
      <path
         id="path3237"
         style="fill:#000000;fill-opacity:1;fill-rule:evenodd;stroke:none"
         d="m 75.225,531.1122 2.4,0 0,-0.75001 -2.4,0 0,0.75001 z"
         inkscape:connector-curvature="0" />
      <path
         id="path3239"
         style="fill:#000000;fill-opacity:1;fill-rule:evenodd;stroke:none"
         d="m 78.525,531.1122 2.4,0 0,-0.75001 -2.4,0 0,0.75001 z"
         inkscape:connector-curvature="0" />
      <path
         id="path3241"
         style="fill:#000000;fill-opacity:1;fill-rule:evenodd;stroke:none"
         d="m 81.825,531.1122 2.4,0 0,-0.75001 -2.4,0 0,0.75001 z"
         inkscape:connector-curvature="0" />
      <path
         id="path3243"
         style="fill:#000000;fill-opacity:1;fill-rule:evenodd;stroke:none"
         d="m 85.125,531.1122 2.4,0 0,-0.75001 -2.4,0 0,0.75001 z"
         inkscape:connector-curvature="0" />
      <path
         id="path3245"
         style="fill:#000000;fill-opacity:1;fill-rule:evenodd;stroke:none"
         d="m 88.425,531.1122 2.4,0 0,-0.75001 -2.4,0 0,0.75001 z"
         inkscape:connector-curvature="0" />
      <path
         id="path3247"
         style="fill:#000000;fill-opacity:1;fill-rule:evenodd;stroke:none"
         d="m 91.725,531.1122 1.05,0 0,-0.75001 -1.05,0 0,0.75001 z"
         inkscape:connector-curvature="0" />
      <path
         id="path3249"
         style="fill:#000000;fill-opacity:1;fill-rule:evenodd;stroke:none"
         d="m 156.1,538.4622 42.45,0 0,-0.75001 -42.45,0 0,0.75001 z"
         inkscape:connector-curvature="0" />
      <path
         id="path3251"
         style="fill:#000000;fill-opacity:1;fill-rule:evenodd;stroke:none"
         d="m 212.5,538.4622 42.48,0 0,-0.75001 -42.48,0 0,0.75001 z"
         inkscape:connector-curvature="0" />
      <path
         id="path3253"
         style="fill:#000000;fill-opacity:1;fill-rule:evenodd;stroke:none"
         d="m 268.9375,538.4622 42.45,0 0,-0.75001 -42.45,0 0,0.75001 z"
         inkscape:connector-curvature="0" />
      <path
         id="path3255"
         style="fill:#000000;fill-opacity:1;fill-rule:evenodd;stroke:none"
         d="m 326.0875,538.4622 2.4,0 0,-0.75001 -2.4,0 0,0.75001 z"
         inkscape:connector-curvature="0" />
      <path
         id="path3257"
         style="fill:#000000;fill-opacity:1;fill-rule:evenodd;stroke:none"
         d="m 329.3875,538.4622 2.4,0 0,-0.75001 -2.4,0 0,0.75001 z"
         inkscape:connector-curvature="0" />
      <path
         id="path3259"
         style="fill:#000000;fill-opacity:1;fill-rule:evenodd;stroke:none"
         d="m 332.6875,538.4622 2.4,0 0,-0.75001 -2.4,0 0,0.75001 z"
         inkscape:connector-curvature="0" />
      <path
         id="path3261"
         style="fill:#000000;fill-opacity:1;fill-rule:evenodd;stroke:none"
         d="m 335.9875,538.4622 2.4,0 0,-0.75001 -2.4,0 0,0.75001 z"
         inkscape:connector-curvature="0" />
      <path
         id="path3263"
         style="fill:#000000;fill-opacity:1;fill-rule:evenodd;stroke:none"
         d="m 339.2875,538.4622 2.4,0 0,-0.75001 -2.4,0 0,0.75001 z"
         inkscape:connector-curvature="0" />
      <path
         id="path3265"
         style="fill:#000000;fill-opacity:1;fill-rule:evenodd;stroke:none"
         d="m 342.5875,538.4622 2.4,0 0,-0.75001 -2.4,0 0,0.75001 z"
         inkscape:connector-curvature="0" />
      <path
         id="path3267"
         style="fill:#000000;fill-opacity:1;fill-rule:evenodd;stroke:none"
         d="m 345.8875,538.4622 2.4,0 0,-0.75001 -2.4,0 0,0.75001 z"
         inkscape:connector-curvature="0" />
      <path
         id="path3269"
         style="fill:#000000;fill-opacity:1;fill-rule:evenodd;stroke:none"
         d="m 349.1875,538.4622 2.4,0 0,-0.75001 -2.4,0 0,0.75001 z"
         inkscape:connector-curvature="0" />
      <path
         id="path3271"
         style="fill:#000000;fill-opacity:1;fill-rule:evenodd;stroke:none"
         d="m 352.4875,538.4622 2.4,0 0,-0.75001 -2.4,0 0,0.75001 z"
         inkscape:connector-curvature="0" />
      <path
         id="path3273"
         style="fill:#000000;fill-opacity:1;fill-rule:evenodd;stroke:none"
         d="m 355.7875,538.4622 2.4,0 0,-0.75001 -2.4,0 0,0.75001 z"
         inkscape:connector-curvature="0" />
      <path
         id="path3275"
         style="fill:#000000;fill-opacity:1;fill-rule:evenodd;stroke:none"
         d="m 359.0875,538.4622 2.4,0 0,-0.75001 -2.4,0 0,0.75001 z"
         inkscape:connector-curvature="0" />
      <path
         id="path3277"
         style="fill:#000000;fill-opacity:1;fill-rule:evenodd;stroke:none"
         d="m 362.3875,538.4622 2.4,0 0,-0.75001 -2.4,0 0,0.75001 z"
         inkscape:connector-curvature="0" />
      <path
         id="path3279"
         style="fill:#000000;fill-opacity:1;fill-rule:evenodd;stroke:none"
         d="m 365.6875,538.4622 2.1,0 0,-0.75001 -2.1,0 0,0.75001 z"
         inkscape:connector-curvature="0" />
      <path
         id="path3281"
         style="fill:#000000;fill-opacity:1;fill-rule:evenodd;stroke:none"
         d="m 381.7375,538.4622 42.48,0 0,-0.75001 -42.48,0 0,0.75001 z"
         inkscape:connector-curvature="0" />
      <path
         id="path3283"
         style="fill:#000000;fill-opacity:1;fill-rule:evenodd;stroke:none"
         d="m 438.1625,538.4622 42.45,0 0,-0.75001 -42.45,0 0,0.75001 z"
         inkscape:connector-curvature="0" />
      <path
         id="path3289"
         style="fill:#000000;fill-opacity:1;fill-rule:evenodd;stroke:none"
         d="m 121.305,553.1622 28.2,0 0,-0.75001 -28.2,0 0,0.75001 z"
         inkscape:connector-curvature="0" />
      <path
         id="path3295"
         style="fill:#000000;fill-opacity:1;fill-rule:evenodd;stroke:none"
         d="m 177.7,553.1622 28.2,0 0,-0.75001 -28.2,0 0,0.75001 z"
         inkscape:connector-curvature="0" />
      <path
         id="path3301"
         style="fill:#000000;fill-opacity:1;fill-rule:evenodd;stroke:none"
         d="m 234.1,553.1622 28.23,0 0,-0.75001 -28.23,0 0,0.75001 z"
         inkscape:connector-curvature="0" />
      <path
         id="path3307"
         style="fill:#000000;fill-opacity:1;fill-rule:evenodd;stroke:none"
         d="m 290.5375,553.1622 28.2,0 0,-0.75001 -28.2,0 0,0.75001 z"
         inkscape:connector-curvature="0" />
      <path
         id="path3311"
         style="fill:#000000;fill-opacity:1;fill-rule:evenodd;stroke:none"
         d="m 346.9375,553.1622 1.35,0 0,-0.75001 -1.35,0 0,0.75001 z"
         inkscape:connector-curvature="0" />
      <path
         id="path3313"
         style="fill:#000000;fill-opacity:1;fill-rule:evenodd;stroke:none"
         d="m 349.1875,553.1622 2.4,0 0,-0.75001 -2.4,0 0,0.75001 z"
         inkscape:connector-curvature="0" />
      <path
         id="path3315"
         style="fill:#000000;fill-opacity:1;fill-rule:evenodd;stroke:none"
         d="m 352.4875,553.1622 2.4,0 0,-0.75001 -2.4,0 0,0.75001 z"
         inkscape:connector-curvature="0" />
      <path
         id="path3317"
         style="fill:#000000;fill-opacity:1;fill-rule:evenodd;stroke:none"
         d="m 355.7875,553.1622 2.4,0 0,-0.75001 -2.4,0 0,0.75001 z"
         inkscape:connector-curvature="0" />
      <path
         id="path3319"
         style="fill:#000000;fill-opacity:1;fill-rule:evenodd;stroke:none"
         d="m 359.0875,553.1622 2.4,0 0,-0.75001 -2.4,0 0,0.75001 z"
         inkscape:connector-curvature="0" />
      <path
         id="path3321"
         style="fill:#000000;fill-opacity:1;fill-rule:evenodd;stroke:none"
         d="m 362.3875,553.1622 2.4,0 0,-0.75001 -2.4,0 0,0.75001 z"
         inkscape:connector-curvature="0" />
      <path
         id="path3323"
         style="fill:#000000;fill-opacity:1;fill-rule:evenodd;stroke:none"
         d="m 365.6875,553.1622 1.95,0 0,-0.75001 -1.95,0 0,0.75001 z"
         inkscape:connector-curvature="0" />
      <path
         id="path3327"
         style="fill:#000000;fill-opacity:1;fill-rule:evenodd;stroke:none"
         d="m 367.6375,553.1622 7.5,0 0,-0.75001 -7.5,0 0,0.75001 z"
         inkscape:connector-curvature="0" />
      <path
         id="path3333"
         style="fill:#000000;fill-opacity:1;fill-rule:evenodd;stroke:none"
         d="m 403.3625,553.1622 28.2,0 0,-0.75001 -28.2,0 0,0.75001 z"
         inkscape:connector-curvature="0" />
      <path
         id="path3335"
         style="fill:#000000;fill-opacity:1;fill-rule:evenodd;stroke:none"
         d="m 459.7625,553.1622 28.2,0 0,-0.75001 -28.2,0 0,0.75001 z"
         inkscape:connector-curvature="0" />
      <path
         id="path3337"
         style="fill:#000000;fill-opacity:1;fill-rule:evenodd;stroke:none"
         d="m 516.1625,553.1622 28.23,0 0,-0.75001 -28.23,0 0,0.75001 z"
         inkscape:connector-curvature="0" />
      <path
         id="path3339"
         style="fill:#000000;fill-opacity:1;fill-rule:evenodd;stroke:none"
         d="m 572.6,553.1622 28.2,0 0,-0.75001 -28.2,0 0,0.75001 z"
         inkscape:connector-curvature="0" />
      <path
         id="path3341"
         style="fill:#000000;fill-opacity:1;fill-rule:evenodd;stroke:none"
         d="m 71.925,567.8622 2.4,0 0,-0.74999 -2.4,0 0,0.74999 z"
         inkscape:connector-curvature="0" />
      <path
         id="path3343"
         style="fill:#000000;fill-opacity:1;fill-rule:evenodd;stroke:none"
         d="m 75.225,567.8622 2.4,0 0,-0.74999 -2.4,0 0,0.74999 z"
         inkscape:connector-curvature="0" />
      <path
         id="path3345"
         style="fill:#000000;fill-opacity:1;fill-rule:evenodd;stroke:none"
         d="m 78.525,567.8622 2.4,0 0,-0.74999 -2.4,0 0,0.74999 z"
         inkscape:connector-curvature="0" />
      <path
         id="path3347"
         style="fill:#000000;fill-opacity:1;fill-rule:evenodd;stroke:none"
         d="m 81.825,567.8622 2.4,0 0,-0.74999 -2.4,0 0,0.74999 z"
         inkscape:connector-curvature="0" />
      <path
         id="path3349"
         style="fill:#000000;fill-opacity:1;fill-rule:evenodd;stroke:none"
         d="m 85.125,567.8622 2.4,0 0,-0.74999 -2.4,0 0,0.74999 z"
         inkscape:connector-curvature="0" />
      <path
         id="path3351"
         style="fill:#000000;fill-opacity:1;fill-rule:evenodd;stroke:none"
         d="m 88.425,567.8622 2.4,0 0,-0.74999 -2.4,0 0,0.74999 z"
         inkscape:connector-curvature="0" />
      <path
         id="path3353"
         style="fill:#000000;fill-opacity:1;fill-rule:evenodd;stroke:none"
         d="m 91.725,567.8622 0.9,0 0,-0.74999 -0.9,0 0,0.74999 z"
         inkscape:connector-curvature="0" />
      <path
         id="path3355"
         style="fill:#000000;fill-opacity:1;fill-rule:evenodd;stroke:none"
         d="m 92.625,567.8622 28.68,0 0,-0.74999 -28.68,0 0,0.74999 z"
         inkscape:connector-curvature="0" />
      <path
         id="path3357"
         style="fill:#000000;fill-opacity:1;fill-rule:evenodd;stroke:none"
         d="m 149.5,567.8622 28.2,0 0,-0.74999 -28.2,0 0,0.74999 z"
         inkscape:connector-curvature="0" />
      <path
         id="path3359"
         style="fill:#000000;fill-opacity:1;fill-rule:evenodd;stroke:none"
         d="m 205.9,567.8622 28.2,0 0,-0.74999 -28.2,0 0,0.74999 z"
         inkscape:connector-curvature="0" />
      <path
         id="path3361"
         style="fill:#000000;fill-opacity:1;fill-rule:evenodd;stroke:none"
         d="m 262.3375,567.8622 28.2,0 0,-0.74999 -28.2,0 0,0.74999 z"
         inkscape:connector-curvature="0" />
      <path
         id="path3363"
         style="fill:#000000;fill-opacity:1;fill-rule:evenodd;stroke:none"
         d="m 318.7375,567.8622 6.75,0 0,-0.74999 -6.75,0 0,0.74999 z"
         inkscape:connector-curvature="0" />
      <path
         id="path3365"
         style="fill:#000000;fill-opacity:1;fill-rule:evenodd;stroke:none"
         d="m 326.0875,567.8622 2.4,0 0,-0.74999 -2.4,0 0,0.74999 z"
         inkscape:connector-curvature="0" />
      <path
         id="path3367"
         style="fill:#000000;fill-opacity:1;fill-rule:evenodd;stroke:none"
         d="m 329.3875,567.8622 2.4,0 0,-0.74999 -2.4,0 0,0.74999 z"
         inkscape:connector-curvature="0" />
      <path
         id="path3369"
         style="fill:#000000;fill-opacity:1;fill-rule:evenodd;stroke:none"
         d="m 332.6875,567.8622 2.4,0 0,-0.74999 -2.4,0 0,0.74999 z"
         inkscape:connector-curvature="0" />
      <path
         id="path3371"
         style="fill:#000000;fill-opacity:1;fill-rule:evenodd;stroke:none"
         d="m 335.9875,567.8622 2.4,0 0,-0.74999 -2.4,0 0,0.74999 z"
         inkscape:connector-curvature="0" />
      <path
         id="path3373"
         style="fill:#000000;fill-opacity:1;fill-rule:evenodd;stroke:none"
         d="m 339.2875,567.8622 2.4,0 0,-0.74999 -2.4,0 0,0.74999 z"
         inkscape:connector-curvature="0" />
      <path
         id="path3375"
         style="fill:#000000;fill-opacity:1;fill-rule:evenodd;stroke:none"
         d="m 342.5875,567.8622 2.4,0 0,-0.74999 -2.4,0 0,0.74999 z"
         inkscape:connector-curvature="0" />
      <path
         id="path3377"
         style="fill:#000000;fill-opacity:1;fill-rule:evenodd;stroke:none"
         d="m 345.8875,567.8622 1.05,0 0,-0.74999 -1.05,0 0,0.74999 z"
         inkscape:connector-curvature="0" />
      <path
         id="path3379"
         style="fill:#000000;fill-opacity:1;fill-rule:evenodd;stroke:none"
         d="m 375.1375,567.8622 28.23,0 0,-0.74999 -28.23,0 0,0.74999 z"
         inkscape:connector-curvature="0" />
      <path
         id="path3381"
         style="fill:#000000;fill-opacity:1;fill-rule:evenodd;stroke:none"
         d="m 431.5625,567.8622 28.2,0 0,-0.74999 -28.2,0 0,0.74999 z"
         inkscape:connector-curvature="0" />
      <path
         id="path3383"
         style="fill:#000000;fill-opacity:1;fill-rule:evenodd;stroke:none"
         d="m 487.9625,567.8622 28.2,0 0,-0.74999 -28.2,0 0,0.74999 z"
         inkscape:connector-curvature="0" />
      <path
         id="path3385"
         style="fill:#000000;fill-opacity:1;fill-rule:evenodd;stroke:none"
         d="m 544.4,567.8622 28.2,0 0,-0.74999 -28.2,0 0,0.74999 z"
         inkscape:connector-curvature="0" />
      <path
         id="path3387"
         style="fill:#000000;fill-opacity:1;fill-rule:evenodd;stroke:none"
         d="m 600.8,567.8622 28.2,0 0,-0.74999 -28.2,0 0,0.74999 z"
         inkscape:connector-curvature="0" />
      <path
         id="path3389"
         style="fill:#000000;fill-opacity:1;fill-rule:evenodd;stroke:none"
         d="m 120.555,567.8622 0.75,0 0,-15.45 -0.75,0 0,15.45 z"
         inkscape:connector-curvature="0" />
      <path
         id="path3393"
         style="fill:#000000;fill-opacity:1;fill-rule:evenodd;stroke:none"
         d="m 148.75,567.8622 0.75,0 0,-14.7 -0.75,0 0,14.7 z"
         inkscape:connector-curvature="0" />
      <path
         id="path3397"
         style="fill:#000000;fill-opacity:1;fill-rule:evenodd;stroke:none"
         d="m 176.95,567.8622 0.74999,0 0,-15.45 -0.74999,0 0,15.45 z"
         inkscape:connector-curvature="0" />
      <path
         id="path3401"
         style="fill:#000000;fill-opacity:1;fill-rule:evenodd;stroke:none"
         d="m 205.15,567.8622 0.74999,0 0,-14.7 -0.74999,0 0,14.7 z"
         inkscape:connector-curvature="0" />
      <path
         id="path3405"
         style="fill:#000000;fill-opacity:1;fill-rule:evenodd;stroke:none"
         d="m 233.35,567.8622 0.75001,0 0,-15.45 -0.75001,0 0,15.45 z"
         inkscape:connector-curvature="0" />
      <path
         id="path3409"
         style="fill:#000000;fill-opacity:1;fill-rule:evenodd;stroke:none"
         d="m 261.5875,567.8622 0.75001,0 0,-14.7 -0.75001,0 0,14.7 z"
         inkscape:connector-curvature="0" />
      <path
         id="path3413"
         style="fill:#000000;fill-opacity:1;fill-rule:evenodd;stroke:none"
         d="m 289.7875,567.8622 0.75001,0 0,-15.45 -0.75001,0 0,15.45 z"
         inkscape:connector-curvature="0" />
      <path
         id="path3417"
         style="fill:#000000;fill-opacity:1;fill-rule:evenodd;stroke:none"
         d="m 317.9875,567.8622 0.75001,0 0,-14.7 -0.75001,0 0,14.7 z"
         inkscape:connector-curvature="0" />
      <path
         id="path3421"
         style="fill:#000000;fill-opacity:1;fill-rule:evenodd;stroke:none"
         d="m 346.1875,552.7122 0.75001,0 0,-0.30001 -0.75001,0 0,0.30001 z"
         inkscape:connector-curvature="0" />
      <path
         id="path3423"
         style="fill:#000000;fill-opacity:1;fill-rule:evenodd;stroke:none"
         d="m 346.1875,556.0122 0.75001,0 0,-2.4 -0.75001,0 0,2.4 z"
         inkscape:connector-curvature="0" />
      <path
         id="path3425"
         style="fill:#000000;fill-opacity:1;fill-rule:evenodd;stroke:none"
         d="m 346.1875,559.3122 0.75001,0 0,-2.4 -0.75001,0 0,2.4 z"
         inkscape:connector-curvature="0" />
      <path
         id="path3427"
         style="fill:#000000;fill-opacity:1;fill-rule:evenodd;stroke:none"
         d="m 346.1875,562.6122 0.75001,0 0,-2.4 -0.75001,0 0,2.4 z"
         inkscape:connector-curvature="0" />
      <path
         id="path3429"
         style="fill:#000000;fill-opacity:1;fill-rule:evenodd;stroke:none"
         d="m 346.1875,565.9122 0.75001,0 0,-2.4 -0.75001,0 0,2.4 z"
         inkscape:connector-curvature="0" />
      <path
         id="path3431"
         style="fill:#000000;fill-opacity:1;fill-rule:evenodd;stroke:none"
         d="m 346.1875,567.8622 0.75001,0 0,-1.05 -0.75001,0 0,1.05 z"
         inkscape:connector-curvature="0" />
      <path
         id="path3435"
         style="fill:#000000;fill-opacity:1;fill-rule:evenodd;stroke:none"
         d="m 374.3875,567.8622 0.75001,0 0,-14.7 -0.75001,0 0,14.7 z"
         inkscape:connector-curvature="0" />
      <path
         id="path3439"
         style="fill:#000000;fill-opacity:1;fill-rule:evenodd;stroke:none"
         d="m 402.6125,567.8622 0.75001,0 0,-15.45 -0.75001,0 0,15.45 z"
         inkscape:connector-curvature="0" />
      <path
         id="path3443"
         style="fill:#000000;fill-opacity:1;fill-rule:evenodd;stroke:none"
         d="m 430.8125,567.8622 0.75001,0 0,-14.7 -0.75001,0 0,14.7 z"
         inkscape:connector-curvature="0" />
      <path
         id="path3447"
         style="fill:#000000;fill-opacity:1;fill-rule:evenodd;stroke:none"
         d="m 459.0125,567.8622 0.75001,0 0,-15.45 -0.75001,0 0,15.45 z"
         inkscape:connector-curvature="0" />
      <path
         id="path3449"
         style="fill:#000000;fill-opacity:1;fill-rule:evenodd;stroke:none"
         d="m 487.2125,567.8622 0.75001,0 0,-14.7 -0.75001,0 0,14.7 z"
         inkscape:connector-curvature="0" />
      <path
         id="path3451"
         style="fill:#000000;fill-opacity:1;fill-rule:evenodd;stroke:none"
         d="m 515.4125,567.8622 0.75001,0 0,-15.45 -0.75001,0 0,15.45 z"
         inkscape:connector-curvature="0" />
      <path
         id="path3453"
         style="fill:#000000;fill-opacity:1;fill-rule:evenodd;stroke:none"
         d="m 543.65,567.8622 0.75001,0 0,-14.7 -0.75001,0 0,14.7 z"
         inkscape:connector-curvature="0" />
      <path
         id="path3455"
         style="fill:#000000;fill-opacity:1;fill-rule:evenodd;stroke:none"
         d="m 571.85,567.8622 0.75001,0 0,-15.45 -0.75001,0 0,15.45 z"
         inkscape:connector-curvature="0" />
      <path
         id="path3457"
         style="fill:#000000;fill-opacity:1;fill-rule:evenodd;stroke:none"
         d="m 600.05,567.8622 0.75001,0 0,-14.7 -0.75001,0 0,14.7 z"
         inkscape:connector-curvature="0" />
      <path
         id="path3459"
         style="fill:#000000;fill-opacity:1;fill-rule:evenodd;stroke:none"
         d="m 628.25,567.8622 0.75001,0 0,-15.45 -0.75001,0 0,15.45 z"
         inkscape:connector-curvature="0" />
      <path
         id="path3461"
         style="fill:#000000;fill-opacity:1;fill-rule:evenodd;stroke:none"
         d="m 656.475,567.8622 0.74997,0 0,-14.7 -0.74997,0 0,14.7 z"
         inkscape:connector-curvature="0" />
      <path
         id="path3473"
         style="fill:#000000;fill-opacity:1;fill-rule:evenodd;stroke:none"
         d="m 607.4,523.7622 42.45,0 0,-0.75001 -42.45,0 0,0.75001 z"
         inkscape:connector-curvature="0" />
      <path
         id="path3475"
         style="fill:#000000;fill-opacity:1;fill-rule:evenodd;stroke:none"
         d="m 656.775,531.1122 1.8,0 0,-0.75001 -1.8,0 0,0.75001 z"
         inkscape:connector-curvature="0" />
      <path
         id="path3477"
         style="fill:#000000;fill-opacity:1;fill-rule:evenodd;stroke:none"
         d="m 659.475,531.1122 2.4,0 0,-0.75001 -2.4,0 0,0.75001 z"
         inkscape:connector-curvature="0" />
      <path
         id="path3479"
         style="fill:#000000;fill-opacity:1;fill-rule:evenodd;stroke:none"
         d="m 662.775,531.1122 2.4,0 0,-0.75001 -2.4,0 0,0.75001 z"
         inkscape:connector-curvature="0" />
      <path
         id="path3481"
         style="fill:#000000;fill-opacity:1;fill-rule:evenodd;stroke:none"
         d="m 666.075,531.1122 2.4,0 0,-0.75001 -2.4,0 0,0.75001 z"
         inkscape:connector-curvature="0" />
      <path
         id="path3483"
         style="fill:#000000;fill-opacity:1;fill-rule:evenodd;stroke:none"
         d="m 669.375,531.1122 2.4,0 0,-0.75001 -2.4,0 0,0.75001 z"
         inkscape:connector-curvature="0" />
      <path
         id="path3485"
         style="fill:#000000;fill-opacity:1;fill-rule:evenodd;stroke:none"
         d="m 672.675,531.1122 2.4,0 0,-0.75001 -2.4,0 0,0.75001 z"
         inkscape:connector-curvature="0" />
      <path
         id="path3487"
         style="fill:#000000;fill-opacity:1;fill-rule:evenodd;stroke:none"
         d="m 675.975,531.1122 2.1,0 0,-0.75001 -2.1,0 0,0.75001 z"
         inkscape:connector-curvature="0" />
      <path
         id="path3489"
         style="fill:#000000;fill-opacity:1;fill-rule:evenodd;stroke:none"
         d="m 607.4,538.4622 42.45,0 0,-0.75001 -42.45,0 0,0.75001 z"
         inkscape:connector-curvature="0" />
      <path
         id="path3491"
         style="fill:#000000;fill-opacity:1;fill-rule:evenodd;stroke:none"
         d="m 629,553.1622 28.23,0 0,-0.75001 -28.23,0 0,0.75001 z"
         inkscape:connector-curvature="0" />
      <path
         id="path3493"
         style="fill:#000000;fill-opacity:1;fill-rule:evenodd;stroke:none"
         d="m 657.225,567.8622 1.35,0 0,-0.74999 -1.35,0 0,0.74999 z"
         inkscape:connector-curvature="0" />
      <path
         id="path3495"
         style="fill:#000000;fill-opacity:1;fill-rule:evenodd;stroke:none"
         d="m 659.475,567.8622 2.4,0 0,-0.74999 -2.4,0 0,0.74999 z"
         inkscape:connector-curvature="0" />
      <path
         id="path3497"
         style="fill:#000000;fill-opacity:1;fill-rule:evenodd;stroke:none"
         d="m 662.775,567.8622 2.4,0 0,-0.74999 -2.4,0 0,0.74999 z"
         inkscape:connector-curvature="0" />
      <path
         id="path3499"
         style="fill:#000000;fill-opacity:1;fill-rule:evenodd;stroke:none"
         d="m 666.075,567.8622 2.4,0 0,-0.74999 -2.4,0 0,0.74999 z"
         inkscape:connector-curvature="0" />
      <path
         id="path3501"
         style="fill:#000000;fill-opacity:1;fill-rule:evenodd;stroke:none"
         d="m 669.375,567.8622 2.4,0 0,-0.74999 -2.4,0 0,0.74999 z"
         inkscape:connector-curvature="0" />
      <path
         id="path3503"
         style="fill:#000000;fill-opacity:1;fill-rule:evenodd;stroke:none"
         d="m 672.675,567.8622 2.4,0 0,-0.74999 -2.4,0 0,0.74999 z"
         inkscape:connector-curvature="0" />
      <path
         id="path3505"
         style="fill:#000000;fill-opacity:1;fill-rule:evenodd;stroke:none"
         d="m 675.975,567.8622 2.1,0 0,-0.74999 -2.1,0 0,0.74999 z"
         inkscape:connector-curvature="0" />
      <path
         id="path3579"
         style="fill:#000000;fill-opacity:1;fill-rule:evenodd;stroke:#000000;stroke-width:0.175;stroke-linecap:butt;stroke-linejoin:round;stroke-miterlimit:10;stroke-opacity:1;stroke-dasharray:none"
         d="m 99.75,523.3872 -0.45,0 -6.6,6.9 0,0.45 0.45,0 6.6,-6.9 0,-0.45 z"
         inkscape:connector-curvature="0" />
      <path
         id="path3581"
         style="fill:#000000;fill-opacity:1;fill-rule:evenodd;stroke:#000000;stroke-width:0.175;stroke-linecap:butt;stroke-linejoin:round;stroke-miterlimit:10;stroke-opacity:1;stroke-dasharray:none"
         d="m 142.075,523.3872 0.45,0 6.6,6.9 0,0.45 -0.45,0 -6.6,-6.9 0,-0.45 z"
         inkscape:connector-curvature="0" />
      <path
         id="path3583"
         style="fill:#000000;fill-opacity:1;fill-rule:evenodd;stroke:#000000;stroke-width:0.175;stroke-linecap:butt;stroke-linejoin:round;stroke-miterlimit:10;stroke-opacity:1;stroke-dasharray:none"
         d="m 212.575,523.3872 -0.45,0 -6.6,6.9 0,0.45 0.45,0 6.6,-6.9 0,-0.45 z"
         inkscape:connector-curvature="0" />
      <path
         id="path3585"
         style="fill:#000000;fill-opacity:1;fill-rule:evenodd;stroke:#000000;stroke-width:0.175;stroke-linecap:butt;stroke-linejoin:round;stroke-miterlimit:10;stroke-opacity:1;stroke-dasharray:none"
         d="m 254.9125,523.3872 0.45,0 6.6,6.9 0,0.45 -0.45,0 -6.6,-6.9 0,-0.45 z"
         inkscape:connector-curvature="0" />
      <path
         id="path3587"
         style="fill:#000000;fill-opacity:1;fill-rule:evenodd;stroke:#000000;stroke-width:0.175;stroke-linecap:butt;stroke-linejoin:round;stroke-miterlimit:10;stroke-opacity:1;stroke-dasharray:none"
         d="m 269.0125,523.3872 -0.45,0 -6.6,6.9 0,0.45 0.45,0 6.6,-6.9 0,-0.45 z"
         inkscape:connector-curvature="0" />
      <path
         id="path3589"
         style="fill:#000000;fill-opacity:1;fill-rule:evenodd;stroke:#000000;stroke-width:0.175;stroke-linecap:butt;stroke-linejoin:round;stroke-miterlimit:10;stroke-opacity:1;stroke-dasharray:none"
         d="m 311.3125,523.3872 0.45,0 6.6,6.9 0,0.45 -0.45,0 -6.6,-6.9 0,-0.45 z"
         inkscape:connector-curvature="0" />
      <path
         id="path3591"
         style="fill:#000000;fill-opacity:1;fill-rule:evenodd;stroke:#000000;stroke-width:0.175;stroke-linecap:butt;stroke-linejoin:round;stroke-miterlimit:10;stroke-opacity:1;stroke-dasharray:none"
         d="m 325.4125,523.3872 -0.45,0 -6.6,6.9 0,0.45 0.45,0 6.6,-6.9 0,-0.45 z"
         inkscape:connector-curvature="0" />
      <path
         id="path3593"
         style="fill:#000000;fill-opacity:1;fill-rule:evenodd;stroke:#000000;stroke-width:0.175;stroke-linecap:butt;stroke-linejoin:round;stroke-miterlimit:10;stroke-opacity:1;stroke-dasharray:none"
         d="m 367.7125,523.3872 0.45,0 6.6,6.9 0,0.45 -0.45,0 -6.6,-6.9 0,-0.45 z"
         inkscape:connector-curvature="0" />
      <path
         id="path3595"
         style="fill:#000000;fill-opacity:1;fill-rule:evenodd;stroke:#000000;stroke-width:0.175;stroke-linecap:butt;stroke-linejoin:round;stroke-miterlimit:10;stroke-opacity:1;stroke-dasharray:none"
         d="m 381.8125,523.3872 -0.45,0 -6.6,6.9 0,0.45 0.45,0 6.6,-6.9 0,-0.45 z"
         inkscape:connector-curvature="0" />
      <path
         id="path3597"
         style="fill:#000000;fill-opacity:1;fill-rule:evenodd;stroke:#000000;stroke-width:0.175;stroke-linecap:butt;stroke-linejoin:round;stroke-miterlimit:10;stroke-opacity:1;stroke-dasharray:none"
         d="m 424.1375,523.3872 0.45,0 6.6,6.9 0,0.45 -0.45,0 -6.6,-6.9 0,-0.45 z"
         inkscape:connector-curvature="0" />
      <path
         id="path3599"
         style="fill:#000000;fill-opacity:1;fill-rule:evenodd;stroke:#000000;stroke-width:0.175;stroke-linecap:butt;stroke-linejoin:round;stroke-miterlimit:10;stroke-opacity:1;stroke-dasharray:none"
         d="m 438.2375,523.3872 -0.45,0 -6.6,6.9 0,0.45 0.45,0 6.6,-6.9 0,-0.45 z"
         inkscape:connector-curvature="0" />
      <path
         id="path3601"
         style="fill:#000000;fill-opacity:1;fill-rule:evenodd;stroke:#000000;stroke-width:0.175;stroke-linecap:butt;stroke-linejoin:round;stroke-miterlimit:10;stroke-opacity:1;stroke-dasharray:none"
         d="m 480.5375,523.3872 0.45,0 6.6,6.9 0,0.45 -0.45,0 -6.6,-6.9 0,-0.45 z"
         inkscape:connector-curvature="0" />
      <path
         id="path3603"
         style="fill:#000000;fill-opacity:1;fill-rule:evenodd;stroke:#000000;stroke-width:0.175;stroke-linecap:butt;stroke-linejoin:round;stroke-miterlimit:10;stroke-opacity:1;stroke-dasharray:none"
         d="m 494.6375,523.3872 -0.45,0 -6.6,6.9 0,0.45 0.45,0 6.6,-6.9 0,-0.45 z"
         inkscape:connector-curvature="0" />
      <path
         id="path3605"
         style="fill:#000000;fill-opacity:1;fill-rule:evenodd;stroke:#000000;stroke-width:0.175;stroke-linecap:butt;stroke-linejoin:round;stroke-miterlimit:10;stroke-opacity:1;stroke-dasharray:none"
         d="m 593.375,523.3872 0.45,0 6.6,6.9 0,0.45 -0.45,0 -6.6,-6.9 0,-0.45 z"
         inkscape:connector-curvature="0" />
      <path
         id="path3607"
         style="fill:#000000;fill-opacity:1;fill-rule:evenodd;stroke:#000000;stroke-width:0.175;stroke-linecap:butt;stroke-linejoin:round;stroke-miterlimit:10;stroke-opacity:1;stroke-dasharray:none"
         d="m 607.475,523.3872 -0.45,0 -6.6,6.9 0,0.45 0.45,0 6.6,-6.9 0,-0.45 z"
         inkscape:connector-curvature="0" />
      <path
         id="path3609"
         style="fill:#000000;fill-opacity:1;fill-rule:evenodd;stroke:#000000;stroke-width:0.175;stroke-linecap:butt;stroke-linejoin:round;stroke-miterlimit:10;stroke-opacity:1;stroke-dasharray:none"
         d="m 649.775,523.3872 0.45,0 6.625,6.9 0,0.45 -0.45,0 -6.625,-6.9 0,-0.45 z"
         inkscape:connector-curvature="0" />
      <path
         id="path3611"
         style="fill:#000000;fill-opacity:1;fill-rule:evenodd;stroke:#000000;stroke-width:0.175;stroke-linecap:butt;stroke-linejoin:round;stroke-miterlimit:10;stroke-opacity:1;stroke-dasharray:none"
         d="m 149.125,530.7372 0.45,0 6.6,6.9 0,0.45 -0.45,0 -6.6,-6.9 0,-0.45 z"
         inkscape:connector-curvature="0" />
      <path
         id="path3613"
         style="fill:#000000;fill-opacity:1;fill-rule:evenodd;stroke:#000000;stroke-width:0.175;stroke-linecap:butt;stroke-linejoin:round;stroke-miterlimit:10;stroke-opacity:1;stroke-dasharray:none"
         d="m 205.525,530.7372 -0.45,0 -6.6,6.9 0,0.45 0.45,0 6.6,-6.9 0,-0.45 z"
         inkscape:connector-curvature="0" />
      <path
         id="path3615"
         style="fill:#000000;fill-opacity:1;fill-rule:evenodd;stroke:#000000;stroke-width:0.175;stroke-linecap:butt;stroke-linejoin:round;stroke-miterlimit:10;stroke-opacity:1;stroke-dasharray:none"
         d="m 205.525,530.7372 0.45,0 6.6,6.9 0,0.45 -0.45,0 -6.6,-6.9 0,-0.45 z"
         inkscape:connector-curvature="0" />
      <path
         id="path3617"
         style="fill:#000000;fill-opacity:1;fill-rule:evenodd;stroke:#000000;stroke-width:0.175;stroke-linecap:butt;stroke-linejoin:round;stroke-miterlimit:10;stroke-opacity:1;stroke-dasharray:none"
         d="m 261.9625,530.7372 -0.45,0 -6.6,6.9 0,0.45 0.45,0 6.6,-6.9 0,-0.45 z"
         inkscape:connector-curvature="0" />
      <path
         id="path3619"
         style="fill:#000000;fill-opacity:1;fill-rule:evenodd;stroke:#000000;stroke-width:0.175;stroke-linecap:butt;stroke-linejoin:round;stroke-miterlimit:10;stroke-opacity:1;stroke-dasharray:none"
         d="m 261.9625,530.7372 0.45,0 6.6,6.9 0,0.45 -0.45,0 -6.6,-6.9 0,-0.45 z"
         inkscape:connector-curvature="0" />
      <path
         id="path3621"
         style="fill:#000000;fill-opacity:1;fill-rule:evenodd;stroke:#000000;stroke-width:0.175;stroke-linecap:butt;stroke-linejoin:round;stroke-miterlimit:10;stroke-opacity:1;stroke-dasharray:none"
         d="m 318.3625,530.7372 -0.45,0 -6.6,6.9 0,0.45 0.45,0 6.6,-6.9 0,-0.45 z"
         inkscape:connector-curvature="0" />
      <path
         id="path3623"
         style="fill:#000000;fill-opacity:1;fill-rule:evenodd;stroke:#000000;stroke-width:0.175;stroke-linecap:butt;stroke-linejoin:round;stroke-miterlimit:10;stroke-opacity:1;stroke-dasharray:none"
         d="m 318.3625,530.7372 0.45,0 6.6,6.9 0,0.45 -0.45,0 -6.6,-6.9 0,-0.45 z"
         inkscape:connector-curvature="0" />
      <path
         id="path3625"
         style="fill:#000000;fill-opacity:1;fill-rule:evenodd;stroke:#000000;stroke-width:0.175;stroke-linecap:butt;stroke-linejoin:round;stroke-miterlimit:10;stroke-opacity:1;stroke-dasharray:none"
         d="m 374.7625,530.7372 -0.45,0 -6.6,6.9 0,0.45 0.45,0 6.6,-6.9 0,-0.45 z"
         inkscape:connector-curvature="0" />
      <path
         id="path3627"
         style="fill:#000000;fill-opacity:1;fill-rule:evenodd;stroke:#000000;stroke-width:0.175;stroke-linecap:butt;stroke-linejoin:round;stroke-miterlimit:10;stroke-opacity:1;stroke-dasharray:none"
         d="m 374.7625,530.7372 0.45,0 6.6,6.9 0,0.45 -0.45,0 -6.6,-6.9 0,-0.45 z"
         inkscape:connector-curvature="0" />
      <path
         id="path3629"
         style="fill:#000000;fill-opacity:1;fill-rule:evenodd;stroke:#000000;stroke-width:0.175;stroke-linecap:butt;stroke-linejoin:round;stroke-miterlimit:10;stroke-opacity:1;stroke-dasharray:none"
         d="m 431.1875,530.7372 -0.45,0 -6.6,6.9 0,0.45 0.45,0 6.6,-6.9 0,-0.45 z"
         inkscape:connector-curvature="0" />
      <path
         id="path3631"
         style="fill:#000000;fill-opacity:1;fill-rule:evenodd;stroke:#000000;stroke-width:0.175;stroke-linecap:butt;stroke-linejoin:round;stroke-miterlimit:10;stroke-opacity:1;stroke-dasharray:none"
         d="m 431.1875,530.7372 0.45,0 6.6,6.9 0,0.45 -0.45,0 -6.6,-6.9 0,-0.45 z"
         inkscape:connector-curvature="0" />
      <path
         id="path3633"
         style="fill:#000000;fill-opacity:1;fill-rule:evenodd;stroke:#000000;stroke-width:0.175;stroke-linecap:butt;stroke-linejoin:round;stroke-miterlimit:10;stroke-opacity:1;stroke-dasharray:none"
         d="m 487.5875,530.7372 -0.45,0 -6.6,6.9 0,0.45 0.45,0 6.6,-6.9 0,-0.45 z"
         inkscape:connector-curvature="0" />
      <path
         id="path3635"
         style="fill:#000000;fill-opacity:1;fill-rule:evenodd;stroke:#000000;stroke-width:0.175;stroke-linecap:butt;stroke-linejoin:round;stroke-miterlimit:10;stroke-opacity:1;stroke-dasharray:none"
         d="m 600.425,530.7372 0.45,0 6.6,6.9 0,0.45 -0.45,0 -6.6,-6.9 0,-0.45 z"
         inkscape:connector-curvature="0" />
      <path
         id="path3637"
         style="fill:#000000;fill-opacity:1;fill-rule:evenodd;stroke:#000000;stroke-width:0.175;stroke-linecap:butt;stroke-linejoin:round;stroke-miterlimit:10;stroke-opacity:1;stroke-dasharray:none"
         d="m 656.85,530.7372 -0.45,0 -6.625,6.9 0,0.45 0.45,0 6.625,-6.9 0,-0.45 z"
         inkscape:connector-curvature="0" />
    </g>
  </g>
</svg>
